<mxfile host="Electron" agent="Mozilla/5.0 (Windows NT 10.0; Win64; x64) AppleWebKit/537.36 (KHTML, like Gecko) draw.io/25.0.2 Chrome/128.0.6613.186 Electron/32.2.5 Safari/537.36" version="25.0.2">
  <diagram name="Page-1" id="t3ADb7iUR5BiC5zD2WS3">
    <mxGraphModel dx="1219" dy="713" grid="1" gridSize="10" guides="1" tooltips="1" connect="1" arrows="1" fold="1" page="1" pageScale="1" pageWidth="850" pageHeight="1100" math="0" shadow="0">
      <root>
        <mxCell id="0" />
        <mxCell id="1" parent="0" />
        <mxCell id="uEMOmw40pflCMdiHprbT-20" value="true" style="text;strokeColor=none;align=center;fillColor=none;html=1;verticalAlign=middle;whiteSpace=wrap;rounded=0;fontSize=20;" parent="1" vertex="1">
          <mxGeometry x="330" y="330" width="60" height="30" as="geometry" />
        </mxCell>
        <mxCell id="9Yd4F28r8KBDLtCIglrc-10" value="" style="edgeStyle=orthogonalEdgeStyle;rounded=0;orthogonalLoop=1;jettySize=auto;html=1;fontSize=20;" edge="1" parent="1" source="9Yd4F28r8KBDLtCIglrc-1" target="9Yd4F28r8KBDLtCIglrc-2">
          <mxGeometry relative="1" as="geometry" />
        </mxCell>
        <mxCell id="9Yd4F28r8KBDLtCIglrc-1" value="&lt;span style=&quot;color: rgb(255, 255, 255);&quot;&gt;Start&lt;/span&gt;" style="strokeWidth=2;html=1;shape=mxgraph.flowchart.start_1;whiteSpace=wrap;fontSize=20;" vertex="1" parent="1">
          <mxGeometry x="430" y="100" width="100" height="60" as="geometry" />
        </mxCell>
        <mxCell id="9Yd4F28r8KBDLtCIglrc-11" value="" style="edgeStyle=orthogonalEdgeStyle;rounded=0;orthogonalLoop=1;jettySize=auto;html=1;fontSize=20;" edge="1" parent="1" source="9Yd4F28r8KBDLtCIglrc-2" target="9Yd4F28r8KBDLtCIglrc-3">
          <mxGeometry relative="1" as="geometry" />
        </mxCell>
        <mxCell id="9Yd4F28r8KBDLtCIglrc-2" value="&lt;span style=&quot;color: rgb(255, 255, 255);&quot;&gt;Nhập n&lt;/span&gt;" style="shape=parallelogram;html=1;strokeWidth=2;perimeter=parallelogramPerimeter;whiteSpace=wrap;rounded=1;arcSize=12;size=0.23;fontSize=20;" vertex="1" parent="1">
          <mxGeometry x="430" y="200" width="100" height="60" as="geometry" />
        </mxCell>
        <mxCell id="9Yd4F28r8KBDLtCIglrc-12" style="edgeStyle=orthogonalEdgeStyle;rounded=0;orthogonalLoop=1;jettySize=auto;html=1;entryX=0.5;entryY=0;entryDx=0;entryDy=0;fontSize=20;" edge="1" parent="1" source="9Yd4F28r8KBDLtCIglrc-3" target="9Yd4F28r8KBDLtCIglrc-4">
          <mxGeometry relative="1" as="geometry" />
        </mxCell>
        <mxCell id="9Yd4F28r8KBDLtCIglrc-15" style="edgeStyle=orthogonalEdgeStyle;rounded=0;orthogonalLoop=1;jettySize=auto;html=1;entryX=0.5;entryY=0;entryDx=0;entryDy=0;fontSize=20;" edge="1" parent="1" source="9Yd4F28r8KBDLtCIglrc-3" target="9Yd4F28r8KBDLtCIglrc-8">
          <mxGeometry relative="1" as="geometry" />
        </mxCell>
        <mxCell id="9Yd4F28r8KBDLtCIglrc-3" value="&lt;span style=&quot;color: rgb(255, 255, 255);&quot;&gt;n &amp;gt;= 5?&lt;/span&gt;" style="strokeWidth=2;html=1;shape=mxgraph.flowchart.decision;whiteSpace=wrap;fontSize=20;" vertex="1" parent="1">
          <mxGeometry x="410" y="320" width="140" height="75" as="geometry" />
        </mxCell>
        <mxCell id="9Yd4F28r8KBDLtCIglrc-18" style="edgeStyle=orthogonalEdgeStyle;rounded=0;orthogonalLoop=1;jettySize=auto;html=1;fontSize=20;" edge="1" parent="1" source="9Yd4F28r8KBDLtCIglrc-4">
          <mxGeometry relative="1" as="geometry">
            <mxPoint x="480" y="510" as="targetPoint" />
          </mxGeometry>
        </mxCell>
        <mxCell id="9Yd4F28r8KBDLtCIglrc-4" value="&lt;span style=&quot;color: rgb(255, 255, 255);&quot;&gt;In &quot; Đạt&quot;&lt;/span&gt;" style="rounded=1;whiteSpace=wrap;html=1;absoluteArcSize=1;arcSize=14;strokeWidth=2;fontSize=20;" vertex="1" parent="1">
          <mxGeometry x="280" y="440" width="125" height="60" as="geometry" />
        </mxCell>
        <mxCell id="9Yd4F28r8KBDLtCIglrc-16" style="edgeStyle=orthogonalEdgeStyle;rounded=0;orthogonalLoop=1;jettySize=auto;html=1;fontSize=20;" edge="1" parent="1" source="9Yd4F28r8KBDLtCIglrc-8" target="9Yd4F28r8KBDLtCIglrc-9">
          <mxGeometry relative="1" as="geometry" />
        </mxCell>
        <mxCell id="9Yd4F28r8KBDLtCIglrc-8" value="&lt;span style=&quot;color: rgb(255, 255, 255);&quot;&gt;In &quot; Không Đạt&quot;&lt;/span&gt;" style="rounded=1;whiteSpace=wrap;html=1;absoluteArcSize=1;arcSize=14;strokeWidth=2;fontSize=20;" vertex="1" parent="1">
          <mxGeometry x="560" y="440" width="170" height="60" as="geometry" />
        </mxCell>
        <mxCell id="9Yd4F28r8KBDLtCIglrc-9" value="&lt;span style=&quot;color: rgb(255, 255, 255);&quot;&gt;End&lt;/span&gt;" style="strokeWidth=2;html=1;shape=mxgraph.flowchart.start_1;whiteSpace=wrap;fontSize=20;" vertex="1" parent="1">
          <mxGeometry x="420" y="520" width="120" height="70" as="geometry" />
        </mxCell>
        <mxCell id="uEMOmw40pflCMdiHprbT-21" value="false" style="text;strokeColor=none;align=center;fillColor=none;html=1;verticalAlign=middle;whiteSpace=wrap;rounded=0;fontSize=20;" parent="1" vertex="1">
          <mxGeometry x="570" y="330" width="60" height="30" as="geometry" />
        </mxCell>
      </root>
    </mxGraphModel>
  </diagram>
</mxfile>
